<?xml version="1.0" encoding="UTF-8"?><svg id="Calque_2" xmlns="http://www.w3.org/2000/svg" viewBox="0 0 240.73 218.57"><g id="Layer_1"><polygon points="240.73 218.57 184.93 218.57 126.87 214.33 58.12 218.57 0 217.36 51.38 181.99 179.9 179.28 240.73 218.57" opacity=".22"/><polygon points="240.73 218.57 182.57 204.1 126.87 213.25 54.05 202.48 0 217.36 54.05 176.88 182.57 176.88 240.73 218.57" opacity=".33"/><polygon points="170.44 153.11 173.24 121.36 216.05 140.52 240.73 218.57 181.31 189.53 170.44 153.11" fill="#d0d8db"/><polygon points="166.07 134.4 174.06 128.28 209.23 145.96 225.16 199.7 180.22 180.3 166.07 134.4" fill="#75bd00"/><polygon points="115.15 182.73 129.37 141.51 173.24 121.36 181.31 189.53 127.13 212.03 115.15 182.73" fill="#fff"/><polygon points="174.06 128.28 129.17 147.96 117.57 175.73 127.38 204.1 180.22 180.3 174.06 128.28" fill="#afda18"/><polygon points="74.39 124.49 129.37 141.51 127.13 212.03 52.69 188.49 53.81 171 74.39 124.49" fill="#d0d8db"/><polygon points="74.39 124.49 52.69 188.49 0 217.36 42.95 154.5 74.39 124.49" fill="#ebeff0"/><polygon points="127.38 204.1 55.77 179.42 57.43 154.89 72.32 130.62 129.17 147.96 127.38 204.1" fill="#75bd00"/><polygon points="72.32 130.62 44.64 158 16.44 202.48 55.77 179.42 72.32 130.62" fill="#afda18"/><polygon points="211.73 154.01 201.89 165.51 188.39 160.24 177.94 161.07 180.22 180.3 225.16 199.7 211.73 154.01" fill="#0090a9"/><path d="M73.75,141.74l-1.43-11.13-14.65,14.49-6.09,13.04-9.02,8.54-5.09,2.61-3.1,4.9,6.79-3.28,3.65,1.54-1.01,4.82,2.39,7.74,2.68-1.57s-2.04-6.09-2.04-6.33,2.33-7.08,2.33-7.08v-4.36l5.21-4.43,10.34-8.25,9.03-11.27Z" fill="#00cabb"/><polygon points="153.29 152.77 160.16 147.62 164.81 151.3 160.65 161.07 164.81 170.93 177.94 161.07 180.22 180.3 133.63 201.29 136.85 181.23 150.1 168.26 148.23 161.07 153.29 152.77" fill="#00cabb"/><polygon points="103.46 140.11 106.43 154.89 91.03 158.81 78.56 149.46 64.72 153.01 72.32 130.62 103.46 140.11" fill="#0090a9"/><polygon points="215.31 165.51 207.02 173.34 195.5 169.54 186.04 174.45 182.57 181.59 225.16 199.7 215.31 165.51" fill="#00779d"/><polygon points="58.12 180.23 71.44 168.26 84.33 164.82 95.01 168.26 111.46 163.82 122.98 166.19 126.87 173.34 119.02 182.73 98.91 181.49 95.2 188.24 98.91 194.29 58.12 180.23" fill="#c2bd00"/><polygon points="62.09 181.6 80.04 170.93 95.9 173.34 112.63 168.26 119.02 172.25 111.75 179.05 98.91 174.45 86.79 182.73 87.38 190.3 62.09 181.6" fill="#d7d400"/><polygon points="133.63 139.56 131.16 168.97 174.06 128.28 173.24 121.36 133.63 139.56" opacity=".33"/><polygon points="117.94 0 72.08 16.94 53.08 59.08 61.31 102.99 131.16 168.97 179.09 98.74 192.3 61.55 169.17 12.81 117.94 0" fill="#f5512f"/><polygon points="78.07 60.04 93.84 33.04 125.68 24.32 155.45 39.62 165.65 71.09 146.95 101.7 110.38 109.36 84.27 89.24 78.07 60.04" fill="#cf2c00"/><polygon points="84.75 57.98 100.5 36.53 128.25 31.98 152.09 47.59 157.92 75.14 139.35 99.4 107.71 102.62 87.39 83.26 84.75 57.98" fill="#eedbc7"/><polygon points="94.39 56.05 106.14 41.95 125.84 38.7 143.74 50.81 142.47 59.85 119.88 68.53 98.55 63.28 94.39 56.05" fill="#fff"/><polygon points="77.87 19.09 116.76 4.8 164.63 16.77 174.61 38.04 158.99 23.08 118.42 13.44 83.52 26.41 66.56 39.71 77.87 19.09" fill="#ff895d"/><polygon points="148.99 103.47 148.03 106.34 133.49 112.66 110.72 114.57 103.83 108.45 110.91 110.94 148.99 103.47" fill="#ff895d"/></g></svg>